<mxfile host="app.diagrams.net" modified="2023-02-16T10:13:00.542Z" agent="5.0 (Macintosh; Intel Mac OS X 10_15_7) AppleWebKit/537.36 (KHTML, like Gecko) Chrome/109.0.0.0 Safari/537.36" etag="m70nXupF2lsh1FCjYxjm" version="20.8.20" type="github">
  <diagram name="第 1 页" id="NR4z_FTmpWKAtMxAHhme">
    <mxGraphModel dx="594" dy="450" grid="1" gridSize="10" guides="1" tooltips="1" connect="1" arrows="1" fold="1" page="1" pageScale="1" pageWidth="827" pageHeight="1169" math="0" shadow="0">
      <root>
        <mxCell id="0" />
        <mxCell id="1" parent="0" />
        <mxCell id="SFZ4pAXIR0Jx22e5PHq2-16" value="" style="edgeStyle=orthogonalEdgeStyle;rounded=0;orthogonalLoop=1;jettySize=auto;html=1;" edge="1" parent="1" source="SFZ4pAXIR0Jx22e5PHq2-1" target="SFZ4pAXIR0Jx22e5PHq2-2">
          <mxGeometry relative="1" as="geometry" />
        </mxCell>
        <mxCell id="SFZ4pAXIR0Jx22e5PHq2-1" value="高层管理" style="rounded=1;whiteSpace=wrap;html=1;" vertex="1" parent="1">
          <mxGeometry x="280" y="80" width="120" height="60" as="geometry" />
        </mxCell>
        <mxCell id="SFZ4pAXIR0Jx22e5PHq2-9" value="" style="edgeStyle=orthogonalEdgeStyle;rounded=0;orthogonalLoop=1;jettySize=auto;html=1;" edge="1" parent="1" source="SFZ4pAXIR0Jx22e5PHq2-2" target="SFZ4pAXIR0Jx22e5PHq2-3">
          <mxGeometry relative="1" as="geometry" />
        </mxCell>
        <mxCell id="SFZ4pAXIR0Jx22e5PHq2-11" style="edgeStyle=orthogonalEdgeStyle;rounded=0;orthogonalLoop=1;jettySize=auto;html=1;entryX=0.5;entryY=0;entryDx=0;entryDy=0;" edge="1" parent="1" target="SFZ4pAXIR0Jx22e5PHq2-4">
          <mxGeometry relative="1" as="geometry">
            <mxPoint x="340" y="280" as="sourcePoint" />
          </mxGeometry>
        </mxCell>
        <mxCell id="SFZ4pAXIR0Jx22e5PHq2-12" style="edgeStyle=orthogonalEdgeStyle;rounded=0;orthogonalLoop=1;jettySize=auto;html=1;" edge="1" parent="1" target="SFZ4pAXIR0Jx22e5PHq2-5">
          <mxGeometry relative="1" as="geometry">
            <mxPoint x="340" y="280" as="sourcePoint" />
          </mxGeometry>
        </mxCell>
        <mxCell id="SFZ4pAXIR0Jx22e5PHq2-2" value="项目管理" style="rounded=1;whiteSpace=wrap;html=1;" vertex="1" parent="1">
          <mxGeometry x="280" y="200" width="120" height="60" as="geometry" />
        </mxCell>
        <mxCell id="SFZ4pAXIR0Jx22e5PHq2-10" value="" style="edgeStyle=orthogonalEdgeStyle;rounded=0;orthogonalLoop=1;jettySize=auto;html=1;" edge="1" parent="1" source="SFZ4pAXIR0Jx22e5PHq2-3" target="SFZ4pAXIR0Jx22e5PHq2-7">
          <mxGeometry relative="1" as="geometry" />
        </mxCell>
        <mxCell id="SFZ4pAXIR0Jx22e5PHq2-13" style="edgeStyle=orthogonalEdgeStyle;rounded=0;orthogonalLoop=1;jettySize=auto;html=1;entryX=0.5;entryY=0;entryDx=0;entryDy=0;" edge="1" parent="1" target="SFZ4pAXIR0Jx22e5PHq2-6">
          <mxGeometry relative="1" as="geometry">
            <mxPoint x="340" y="400" as="sourcePoint" />
            <Array as="points">
              <mxPoint x="180" y="400" />
            </Array>
          </mxGeometry>
        </mxCell>
        <mxCell id="SFZ4pAXIR0Jx22e5PHq2-3" value="软件开发" style="rounded=1;whiteSpace=wrap;html=1;" vertex="1" parent="1">
          <mxGeometry x="280" y="320" width="120" height="60" as="geometry" />
        </mxCell>
        <mxCell id="SFZ4pAXIR0Jx22e5PHq2-4" value="质量保证" style="rounded=1;whiteSpace=wrap;html=1;" vertex="1" parent="1">
          <mxGeometry x="80" y="320" width="120" height="60" as="geometry" />
        </mxCell>
        <mxCell id="SFZ4pAXIR0Jx22e5PHq2-5" value="配置管理" style="rounded=1;whiteSpace=wrap;html=1;" vertex="1" parent="1">
          <mxGeometry x="480" y="320" width="120" height="60" as="geometry" />
        </mxCell>
        <mxCell id="SFZ4pAXIR0Jx22e5PHq2-6" value="设计" style="rounded=1;whiteSpace=wrap;html=1;" vertex="1" parent="1">
          <mxGeometry x="120" y="440" width="120" height="60" as="geometry" />
        </mxCell>
        <mxCell id="SFZ4pAXIR0Jx22e5PHq2-7" value="实施" style="rounded=1;whiteSpace=wrap;html=1;" vertex="1" parent="1">
          <mxGeometry x="280" y="440" width="120" height="60" as="geometry" />
        </mxCell>
        <mxCell id="SFZ4pAXIR0Jx22e5PHq2-8" value="质量控制" style="rounded=1;whiteSpace=wrap;html=1;" vertex="1" parent="1">
          <mxGeometry x="440" y="440" width="120" height="60" as="geometry" />
        </mxCell>
        <mxCell id="SFZ4pAXIR0Jx22e5PHq2-15" style="edgeStyle=orthogonalEdgeStyle;rounded=0;orthogonalLoop=1;jettySize=auto;html=1;entryX=0.5;entryY=0;entryDx=0;entryDy=0;" edge="1" parent="1" target="SFZ4pAXIR0Jx22e5PHq2-8">
          <mxGeometry relative="1" as="geometry">
            <mxPoint x="340" y="400" as="sourcePoint" />
            <mxPoint x="500" y="436" as="targetPoint" />
            <Array as="points">
              <mxPoint x="500" y="400" />
            </Array>
          </mxGeometry>
        </mxCell>
        <mxCell id="SFZ4pAXIR0Jx22e5PHq2-17" value="" style="curved=1;endArrow=classic;html=1;rounded=0;entryX=0;entryY=0.5;entryDx=0;entryDy=0;exitX=0.4;exitY=-0.067;exitDx=0;exitDy=0;exitPerimeter=0;" edge="1" parent="1">
          <mxGeometry width="50" height="50" relative="1" as="geometry">
            <mxPoint x="128" y="319.98" as="sourcePoint" />
            <mxPoint x="280" y="114" as="targetPoint" />
            <Array as="points">
              <mxPoint x="110" y="174" />
              <mxPoint x="115" y="154" />
            </Array>
          </mxGeometry>
        </mxCell>
        <mxCell id="SFZ4pAXIR0Jx22e5PHq2-19" value="" style="endArrow=classic;startArrow=classic;html=1;rounded=0;dashed=1;" edge="1" parent="1">
          <mxGeometry width="50" height="50" relative="1" as="geometry">
            <mxPoint x="410" y="229.5" as="sourcePoint" />
            <mxPoint x="500" y="229.5" as="targetPoint" />
          </mxGeometry>
        </mxCell>
        <mxCell id="SFZ4pAXIR0Jx22e5PHq2-20" value="" style="whiteSpace=wrap;html=1;aspect=fixed;" vertex="1" parent="1">
          <mxGeometry x="300" y="250" width="80" height="80" as="geometry" />
        </mxCell>
        <mxCell id="SFZ4pAXIR0Jx22e5PHq2-21" value="协调者" style="whiteSpace=wrap;html=1;aspect=fixed;fillColor=none;strokeColor=none;" vertex="1" parent="1">
          <mxGeometry x="430" y="190" width="50" height="50" as="geometry" />
        </mxCell>
        <mxCell id="SFZ4pAXIR0Jx22e5PHq2-22" value="用户" style="whiteSpace=wrap;html=1;aspect=fixed;fillColor=none;strokeColor=none;" vertex="1" parent="1">
          <mxGeometry x="510" y="205" width="50" height="50" as="geometry" />
        </mxCell>
      </root>
    </mxGraphModel>
  </diagram>
</mxfile>
